# xmcd CD database file
#
# Track frame offsets:
#	150
#	18432
#	40524
#	61133
#	81068
#	101246
#	117400
#	138828
#	158215
#	175633
#	193697
#	197849
#	216626
#	235887
#	253767
#	271629
#	289519
#	290866
#	292028
#	294869
#	297622
#
# Disc length: 3995 seconds
#
# Revision: 0
# Processed by: cddbd v1.5.1PL2 Copyright (c) Steve Scherf et al.
# Submitted via: CDex 1.51
#
DISCID=480f9915
DTITLE=Brad Paisley - Time Well Wasted
DYEAR=2005
DGENRE=Country
TTITLE0=Brad Paisley - The World
TTITLE1=Brad Paisley - Alcohol
TTITLE2=Brad Paisley - Waitin On A Woman
TTITLE3=Brad Paisley - Ill Take You Back
TTITLE4=Brad Paisley - Shes Everything
TTITLE5=Brad Paisley - You Need A Man Around Here
TTITLE6=Brad Paisley - Out In The Parkin Lot (With Al
TTITLE7=Brad Paisley - Rainin You
TTITLE8=Brad Paisley - Flowers
TTITLE9=Brad Paisley - Love Is Never Ending
TTITLE10=Brad Paisley - The Uncloudy Day
TTITLE11=Brad Paisley - When I Get Where Im Going (Wit
TTITLE12=Brad Paisley - Easy Money
TTITLE13=Brad Paisley - Time Warp
TTITLE14=Brad Paisley - Time Well Wasted
TTITLE15=Brad Paisley - Cornography Feat James Burton
TTITLE16=Brad Paisley - Cornography Feat James Burton
TTITLE17=Brad Paisley - Cornography Feat James Burton
TTITLE18=Brad Paisley - Cornography Feat James Burton
TTITLE19=Brad Paisley - Cornography Feat James Burton
TTITLE20=Brad Paisley - Cornography Feat James Burton
EXTD=YEAR: 2005
EXTT0=
EXTT1=
EXTT2=
EXTT3=
EXTT4=
EXTT5=
EXTT6=
EXTT7=
EXTT8=
EXTT9=
EXTT10=
EXTT11=
EXTT12=
EXTT13=
EXTT14=
EXTT15=
EXTT16=
EXTT17=
EXTT18=
EXTT19=
EXTT20=
PLAYORDER=
